<?xml version="1.0" encoding="utf-8"?>
<!-- Generator: Adobe Illustrator 28.0.0, SVG Export Plug-In . SVG Version: 6.00 Build 0)  -->
<svg version="1.1" id="Capa_1" xmlns="http://www.w3.org/2000/svg" xmlns:xlink="http://www.w3.org/1999/xlink" x="0px" y="0px"
	 viewBox="0 0 306.75 237.75" style="enable-background:new 0 0 306.75 237.75;" xml:space="preserve">
<style type="text/css">
	.st0{fill:#030503;}
	.st1{fill:#4A790D;}
	.st2{fill:#85B804;}
	.st3{fill:#9A9B9A;}
	.st4{fill:#FEFEFE;}
</style>
<g>
	<path class="st0" d="M43.22,107.78c1.79-0.32,3.57-0.63,5.36-0.95c-0.06,2.54,0,5.09-0.21,7.61c-0.22,2.73,0.73,4.6,3.08,6.08
		c3.83,2.4,7.49,5.06,11.24,7.57c9.57,6.4,20.01,11,30.89,14.67c2.23,0.62,4.46,1.23,6.68,1.88c9.29,2.73,18,6.71,28.53,4.72
		c6.64-1.26,13.19-2.34,19.37-4.99c4.42-1.89,4.92-6.06,1.38-9.25c-1.18-1.06-2.39-2.19-3.78-2.89c-4.85-2.44-8.66-5.85-11.45-10.56
		c-8.43-14.2-2.14-31.29,11.17-38.36c1.37-0.73,2.91-2.59,2.99-4c0.46-7.73-5.69-13.06-13.28-12.29c-1.52,0.15-3.37-1.1-4.73-2.14
		c-0.57-0.44-0.65-2.77-0.33-2.93c1.44-0.69,3.25-1.51,4.66-1.17c9.24,2.22,16.45,7.03,19.1,16.74c0.62,2.26,1.69,2.62,3.83,2.93
		c4.44,0.64,8.85,1.72,13.15,3.01c2.52,0.75,3.81,0.71,4.63-2.2c1.96-6.95-1.03-12.48-7.64-14.15c-1.51-0.38-2.85-1.97-3.91-3.29
		c-0.39-0.49,0.29-2.63,0.44-2.63c1.63,0.05,3.47-0.03,4.85,0.69c7.98,4.18,13.22,13.23,11.3,21.98c-1.05,4.75,0.39,7.96,2.39,11.51
		c6.02,10.71,3.7,27.46-8.18,35.53c-2.71,1.84-5.26,3.94-7.73,6.09c-2.42,2.12-2.61,5.78-0.39,7.05c1.89,1.08,3.94,2.05,6.04,2.58
		c15.72,3.97,31.25,3.8,46.46-2.42c4.89-1.94,9.78-3.87,14.66-5.83c2.94-1.18,6.03-2.13,8.76-3.69c6.69-3.84,13.23-7.94,19.78-12.01
		c6.31-3.92,7.04-5.72,5.54-12.8c2.3,0.83,4.6,1.67,6.89,2.5c-0.04,2.23-0.06,4.46-0.1,6.69c-0.07,3.39-2.84,6.59-5.89,7.79
		c-3.62,1.43-7.03,3.39-10.22,4.96c1.89,2.76,3.35,4.87,4.78,6.98c0.7,1.04,1.38,2.1,2.06,3.16c5.04,4.79,10.04,9.63,15.15,14.34
		c0.77,0.71,2.05,0.85,3.09,1.26c0.31,0.35,0.67,0.68,0.93,1.07c3.43,5.31,5.46,5.69,9.92,1.06c3.55-3.69,6.6-7.86,9.88-11.82
		c0.99,10-3.83,17.48-10.2,24.51c-1.74,1.92-2.49,4.99-3.05,7.67c-1.68,7.95-5.22,15.09-11.27,20.22
		c-5.09,4.32-10.26,8.86-17.62,10.07c-8.86,1.47-17.27,0.62-25.64-2.08c-0.68-0.22-1.13-1.06-1.73-1.57
		c-2.25-1.88-4.09-1.06-6.07,1.19c-6.66,7.56-12.35,15.9-21.83,20.89c-11.63,6.11-22.23,4.05-32.52-1.99
		c-6.26-3.67-11.77-8.62-17.97-13.27c-3.53,2.58-7.43,6.09-11.9,8.58c-11.37,6.34-22.9,7.98-35.42,2.03
		c-6.69-3.18-11.31-7.98-15.85-13.21c-1.82-2.09-3.43-2.4-5.43-0.69c-8.22,7.03-17.84,9.66-28.45,8.81
		c-6.48-0.52-12.36-2.94-17.39-7.03c-9.6-7.79-15.38-17.72-16.74-30.17c-0.15-1.33-1.84-2.79-3.17-3.65
		c-9.14-5.91-14.76-14.29-17.65-24.62c-0.51-1.83-0.43-3.82-0.62-5.73c4.73,5.7,9.47,11.39,14.52,17.47
		c1.92-2.42,3.73-4.7,5.53-6.98c2.6-1.9,5.41-3.58,7.77-5.74c5.36-4.93,10.51-10.1,15.74-15.18c1.46-1.11,3.04-2.11,4.34-3.39
		c0.7-0.69,1.11-1.83,1.28-2.84c0.08-0.46-0.64-1.25-1.19-1.59c-1.67-1.03-3.5-1.79-5.13-2.87
		C40.28,122.47,41.07,112.76,43.22,107.78z M122.69,169.78c0.22-0.24,0.43-0.48,0.65-0.73c0.64-3.29,3.29-6.72-0.71-9.67
		c-0.1-0.61-0.19-1.23-0.34-2.15c-3.09-0.92-6.81-2.16-10.6-3.11c-2.31-0.58-4.73-0.69-7.1-1.01c-0.43-0.06-0.85-0.12-1.28-0.17
		c-0.24-0.35-0.48-0.7-0.72-1.05c-3.26-1.09-6.53-2.18-9.95-3.33c-6.5,13.45-12.89,26.69-19.49,40.34
		c13.13,3.67,26.09,6.87,39.47,7.9c3.19,0.25,6.15-1.37,6.38-5.32c0.13-2.23-0.01-4.48-0.03-6.72c0.63-0.71,1.67-1.35,1.81-2.15
		c0.79-4.27,1.36-8.58,2.01-12.88L122.69,169.78z M273.13,186.58c-4.98,2.54-9.84,5.36-14.97,7.55c-4.61,1.96-9.51,3.23-14.28,4.81
		c-2.03,0.45-4.05,0.91-6.3,1.41c1.71,1.17,2.99,2.23,4.44,2.97c1.68,0.87,3.56,2.16,5.27,2.05c8.01-0.54,16.16-0.67,23.48-4.81
		c1.1-0.62,2.66-0.43,4.25-0.65c0.39-1.14,0.48-3.98,1.8-4.76c2.84-1.68,3.83-4.54,5.52-6.85c1.8-2.46,2.65-5.62,4.36-9.47
		C281.59,181.74,277.36,184.16,273.13,186.58z M110.01,216.85c1.43,0.63,2.81,1.46,4.3,1.87c3.53,0.96,7.22,2.71,10.66,2.36
		c5.68-0.59,11.25-2.49,16.81-4.05c1.66-0.47,3.12-1.66,4.66-2.55c0.11-0.06,0.1-0.33,0.14-0.5c-0.5-0.15-0.99-0.3-1.89-0.56
		c1.25-0.26,2.01-0.42,2.69-0.57c-16.29-1.6-32.58-3.21-48.67-4.79c3.65,2.84,7.45,5.8,11.25,8.75c-0.1,0.12-0.21,0.24-0.31,0.36
		C109.77,217.06,109.89,216.96,110.01,216.85z M45.67,207.13c3.6,0.76,5.61,4.68,9.77,4.58c5.59-0.14,11.37,1.06,16.74-0.01
		c4.95-0.99,9.45-4.21,14.15-6.45c-0.04-0.28-0.08-0.56-0.12-0.84c-2.75-0.55-5.49-1.11-8.24-1.66c-2.59-0.78-5.22-1.45-7.76-2.36
		c-8.5-3.04-16.96-6.17-25.44-9.25c-1.93-0.7-3.88-1.31-5.82-1.96c-2.48-1.53-4.97-3.05-8.02-4.93c2.72,9.93,7.25,17.38,14.71,22.84
		c-0.1,0.12-0.2,0.24-0.31,0.36C45.43,207.34,45.55,207.24,45.67,207.13z M256.62,142.76l0.04,0.04c-3.92-6.15-5.04-6.4-11.27-2.56
		c-0.4,0.24-0.92,0.26-1.37,0.44c-5.61,2.24-11.23,4.46-16.82,6.76c-1.41,0.58-2.76,1.33-1.61,3.35c0.16,0.27-0.73,1.15-1.14,1.74
		c-0.07-0.04-0.14-0.09-0.21-0.13c0.09,0.03,0.18,0.05,0.27,0.08c0.29,4.6,3.18,7.85,5.87,11.2c-0.26,5.04,2.84,8.64,5.33,12.51
		c0.44,0.82,1.02,1.6,1.3,2.48c1.87,5.9,6.43,8.11,12.16,5.85c3.79-1.5,7.58-3,11.37-4.5c8.31-3.14,16.05-7.3,23.87-12.49
		c-7.66-7-14.89-13.62-22.13-20.23C260.39,145.78,258.51,144.27,256.62,142.76z M173.44,211.69c-2.98,0-5.95,0-9.21,0
		c7.86,12.89,20.01,17.14,32.51,15.79c12.99-1.4,23.1-9.44,26.61-23.22c-1.58,0.42-3.58,0.95-5.57,1.48
		c-0.41,0.21-0.82,0.41-1.23,0.62c-0.23-0.01-0.46-0.03-0.69-0.04c-4.68,0.68-9.36,1.36-14.03,2.05
		c-5.72,0.85-11.43,1.82-17.17,2.53C180.95,211.36,177.18,211.44,173.44,211.69z M177.77,162.19c-0.28-1.17-0.55-2.34-0.86-3.64
		c-15.32,0-30.48,0-45.73,0c-0.19,1.02-0.43,2.35-0.68,3.68c-2.42,11.92-4.84,23.84-7.26,35.72c9.36,2.54,57.34,2.58,61.74-0.67
		C182.59,185.63,180.18,173.91,177.77,162.19z M47.73,180c5.07,1.94,10.11,3.97,15.22,5.79c2.88,1.03,5.33,0.07,6.75-2.65
		c1.8-3.44,3.36-7,5.02-10.51c2.32-4.69,4.73-9.34,6.91-14.09c0.73-1.59,0.86-3.45,1.27-5.18c0.58-0.51,1.15-1.05,1.75-1.54
		c2.4-1.93,2.74-4.96,0.53-5.99c-8.27-3.85-16.59-7.59-25.03-11.44c-1.52,1.29-3.21,2.72-4.9,4.15
		c-10.42,9.64-20.84,19.27-31.99,29.59C31.95,172.36,39.84,176.18,47.73,180z M186.24,161.53c-2.55,2.71-2.45,5.79-1.25,9.03
		c1.23,5.92,2.46,11.84,3.69,17.77c-1.03,4.41,4.23,5.41,4.89,9.64c13.86-2.86,27.61-5.69,41.9-8.64
		c-6.07-12.27-11.61-23.46-17.14-34.65c-0.54-1.19-1.07-2.38-1.28-2.85c-10.78,2.16-21.13,4.23-31.6,6.33
		C185.73,159.39,185.99,160.46,186.24,161.53z M154.91,119.09c4.52,0.08,9.64-4.85,9.7-9.33c0.06-4.14-5.29-9.55-9.59-9.72
		c-4.47-0.17-9.28,4.92-9.31,9.85C145.68,114.92,149.76,119,154.91,119.09z M182.03,110.31c-0.07-3.27-2.87-5.86-6.39-5.91
		c-3.29-0.04-6.53,3.08-6.57,6.34c-0.04,2.85,3.79,7.54,6.1,7.46C178.22,118.1,182.1,113.63,182.03,110.31z"/>
	<path class="st1" d="M93.57,142.76c-10.88-3.67-21.31-8.27-30.89-14.67c-3.76-2.51-7.42-5.17-11.24-7.57
		c-2.35-1.48-3.3-3.35-3.08-6.08c0.21-2.53,0.15-5.08,0.21-7.61c1.76-7.42,3.04-14.99,5.41-22.2c2.36-7.18,5.48-14.18,8.88-20.94
		c6.41-12.74,14.33-24.52,25.22-33.91c13.4-11.56,29-19.14,46.21-22.97c7.23-1.61,14.79-2.16,22.22-2.33
		c16.33-0.38,32.15,2.22,46.94,9.68c12.41,6.26,23.56,14.31,32.56,24.82c15.31,17.88,25.8,38.32,30.34,61.58
		c0.6,3.09,1.02,6.21,1.52,9.32c1.5,7.07,0.76,8.88-5.54,12.8c-6.55,4.07-13.09,8.17-19.78,12.01c-2.73,1.57-5.82,2.51-8.76,3.69
		c-4.88,1.96-9.77,3.89-14.66,5.83c-0.71-3.64,1.9-4.47,4.24-5.19c0.12-1.34,0.23-2.52,0.33-3.71c0,0-0.03,0.03-0.03,0.03
		c0.51-1.97,1.02-3.94,1.47-5.64c-0.13-0.12,0.18,0.18,0.78,0.74c-0.15-4.09,2-8.08-1.38-11.51c-0.01-1.03-0.02-2.06-0.02-3.09
		c-0.45-2.09-0.89-4.18-1.43-6.7c0.56-0.42,1.74-1.33,2.93-2.23c2.5-0.14,5.01-0.25,7.51-0.44c3.5-0.28,5.63-2.81,6.39-5.61
		c1.11-4.06,1-8.4-2.83-11.45c-4.91-3.91-9.53-3.09-15.54,2.66c-1.42-2.44-2.62-4.89,0.35-7.26c-7.1-3.36-5.46-11.14-9.02-16.13
		c-0.95,0.8-1.97,1.67-3.26,2.77c-2.03-3.2-4.02-6.32-5.98-9.42c-0.3,0.42-0.78,1.08-1.3,1.8c-4.21-6.94-6.06-8.46-8.69-6.88
		c-0.22-1.16-0.42-2.23-0.63-3.3c2.27-5.62,2.26-7.12-1.33-8.81c-1.7-0.8-4.14-0.02-6.25,0.05c-0.46,0.52-0.92,1.03-1.38,1.55
		l0.1-0.02c-1.03-0.2-2.05-0.41-2.9-0.58c-0.77,1.92-1.39,3.47-2.14,5.35c-0.5-1.76-0.88-3.12-1.31-4.61
		c-1.28,0.63-2.25,1.11-3.2,1.58c-2.12-1.35-3.22-5.25-6.63-2.61c-0.5-0.65-0.97-1.28-1.55-2.03c-1.43,1.58-2.65,2.94-3.48,3.85
		c-1.19-0.56-2.23-1.05-3.27-1.54c-1.29-0.61-2.58-1.23-3.87-1.84c0.09,0.3,0.18,0.6,0.28,0.89c-1.43,0.54-3.21,1.91-4.23,1.48
		c-3.51-1.5-7.91-0.92-10.87,1.32c-2.26,1.71-5.01,3.07-7.74,3.78c-2.23,0.58-4.78-0.21-7.15,0.01c-0.75,0.07-1.38,1.48-2.07,2.27
		c-0.84,0.96-1.67,1.92-2.51,2.89c-0.31-0.22-0.62-0.44-0.93-0.66c-0.12,1.1-0.25,2.2-0.37,3.31c-4.35-2.91-6.91-3.02-9.9-0.63
		c-2.72,2.17-1.7,5.09-1.76,7.81c-1.37,0.46-2.5,0.72-2.51,2.82c-0.01,2.02-1.11,4.04-1.74,6.05c-0.36-0.12-0.72-0.24-1.08-0.35
		c-0.23-0.78-0.45-1.57-0.77-2.66c-2.89,4.91-4.21,9.63-3.74,12.94l0.03-0.03c-0.76,0.01-1.51,0.01-2.27,0.02
		c-0.84-3.67-4.99-5.25-9.85-5.26c-4.32-0.01-7.85,2.35-9.28,6.18c-1.54,4.14-0.53,8.88,2.49,11.56c4.34,3.87,10,3.67,15.51-0.53
		c0.18,0.72,0.75,1.85,0.48,2.1c-2.24,2.15-4.63,4.13-6.97,6.16c0.77,0.98,1.58,2.01,2.06,2.63c-1.05,2.08-2.36,3.62-2.56,5.3
		c-0.38,3.15-0.14,6.37-0.09,9.56c0.01,0.85,0.18,1.72,0.43,2.52c1.08,3.43,2.21,6.85,3.35,10.26c0.04,0.13,0.28,0.19,0.51,0.34
		c0.16-1.02,0.31-1.95,0.45-2.89c0.12,0.01,0.24,0.02,0.36,0.03c0.06,0.96,0.12,1.93,0.18,2.89c0.24-0.26,0.49-0.52,0.73-0.78
		c0.98,1.24,1.96,2.48,2.95,3.72c-0.8,0.04-1.61,0.08-2.41,0.12c0.06,0.24,0.12,0.48,0.19,0.71c0.75-0.27,1.49-0.55,2.24-0.82
		c0.43,1.23,0.41,1.46-0.83,1.39C94.64,140.36,93.67,140.93,93.57,142.76z M68.85,70.73c5.9-7.26,11.81-14.53,17.71-21.79
		c19.7-17.96,43.01-27.13,69.56-27.81c6.05-0.16,12.14,1.73,18.22,1.78c4.47,0.04,7.14,1.36,8.41,5.6c0.24,0.79,0.94,1.45,1.48,2.13
		c5.59,6.87,13.03,10.93,21.25,13.68c6,2.01,12.11,3.98,17.74-1.17c2.58,2.19,5.04,4.27,7.49,6.35c0.18,0.31,0.33,0.66,0.55,0.94
		c5.4,6.67,11.07,13.14,16.11,20.07c3.01,4.15,5.03,9.02,7.75,14.04c-0.35-2.21-0.21-4.11-0.96-5.55
		c-4.4-8.52-8.94-16.97-13.61-25.35c-0.9-1.61-2.58-2.79-3.89-4.16c-0.59-0.64-1.17-1.28-1.76-1.92c-0.31-0.36-0.63-0.73-0.94-1.09
		c-4.76-4.48-9.29-9.24-14.33-13.38c-12.45-10.24-27.1-16.3-42.68-19.3c-11.02-2.12-22.42-2.13-33.72-0.34
		c-23.76,3.77-43.81,14.23-59.82,32.26c-6.85,6.83-12.12,14.73-16.16,23.49c-3.35,3.34-3.55,7.82-5.02,11.84
		c0.31,0.13,0.61,0.27,0.92,0.4C65.07,77.86,66.96,74.29,68.85,70.73z"/>
	<path class="st1" d="M23.88,158.33c-1.81,2.28-3.61,4.56-5.53,6.98c-5.06-6.08-9.79-11.78-14.52-17.47
		c-0.05-4.35-0.13-8.7-0.13-13.05c0-3.97,2.58-6.51,5.5-8.4c9.26-5.97,18.64-11.76,28.11-17.39c1.63-0.97,3.93-0.84,5.91-1.22
		c-2.15,4.98-2.94,14.69,3.47,18.95c1.63,1.08,3.47,1.84,5.13,2.87c0.55,0.34,1.27,1.12,1.19,1.59c-0.16,1-0.58,2.15-1.28,2.84
		c-1.3,1.28-2.88,2.28-4.34,3.39c-1.48-2.59-2.46-0.23-3.27,0.5c-1.9,1.71-3.54,3.7-5.34,5.52
		C33.83,148.41,28.85,153.36,23.88,158.33z"/>
	<path class="st1" d="M304.38,147.86c-3.27,3.96-6.33,8.13-9.88,11.82c-4.46,4.63-6.49,4.25-9.92-1.06
		c-0.25-0.39-0.62-0.71-0.93-1.07c-3.98-6.98-10.34-11.52-16.64-16.11c-0.27-0.2-1.05,0.32-1.6,0.5c-0.69-1.05-1.36-2.12-2.06-3.16
		c-1.43-2.12-2.89-4.22-4.78-6.98c3.19-1.57,6.6-3.53,10.22-4.96c3.05-1.2,5.82-4.4,5.89-7.79c0.05-2.23,0.07-4.46,0.1-6.69
		c11.37,4.8,21.55,11.05,27.88,22.2C305.06,138.81,304.48,143.34,304.38,147.86z"/>
	<path class="st2" d="M223.72,135.32c-0.11,1.18-0.21,2.37-0.33,3.71c-2.34,0.72-4.95,1.55-4.24,5.19
		c-15.2,6.22-30.74,6.38-46.46,2.42c-2.1-0.53-4.15-1.5-6.04-2.58c-2.22-1.27-2.03-4.93,0.39-7.05c2.47-2.16,5.02-4.25,7.73-6.09
		c11.88-8.07,14.2-24.82,8.18-35.53c-2-3.56-3.44-6.76-2.39-11.51c1.93-8.75-3.32-17.8-11.3-21.98c-1.38-0.72-3.22-0.64-4.85-0.69
		c-0.15,0-0.83,2.14-0.44,2.63c1.06,1.32,2.4,2.91,3.91,3.29c6.61,1.67,9.6,7.2,7.64,14.15c-0.82,2.91-2.11,2.96-4.63,2.2
		c-4.31-1.28-8.71-2.36-13.15-3.01c-2.13-0.31-3.21-0.67-3.83-2.93c-2.65-9.71-9.86-14.53-19.1-16.74
		c-1.41-0.34-3.22,0.49-4.66,1.17c-0.32,0.15-0.25,2.49,0.33,2.93c1.36,1.04,3.21,2.3,4.73,2.14c7.59-0.77,13.74,4.56,13.28,12.29
		c-0.08,1.42-1.63,3.28-2.99,4c-13.31,7.08-19.6,24.16-11.17,38.36c2.79,4.71,6.61,8.12,11.45,10.56c1.39,0.7,2.6,1.83,3.78,2.89
		c3.54,3.19,3.04,7.36-1.38,9.25c-6.18,2.64-12.73,3.73-19.37,4.99c-10.53,1.99-19.24-1.99-28.53-4.72
		c-2.22-0.65-4.46-1.25-6.68-1.88c0.1-1.84,1.07-2.4,2.86-2.3c1.24,0.07,1.26-0.16,0.83-1.39l-0.01-0.02
		c-0.98-1.24-1.96-2.48-2.95-3.72c-0.24,0.26-0.49,0.52-0.73,0.78c-0.06-0.96-0.12-1.93-0.18-2.89c-0.12-0.01-0.24-0.02-0.36-0.03
		c-0.15,0.94-0.29,1.87-0.45,2.89c-0.23-0.15-0.47-0.21-0.51-0.34c-1.13-3.41-2.27-6.83-3.35-10.26c-0.25-0.81-0.42-1.68-0.43-2.52
		c-0.05-3.19-0.28-6.42,0.09-9.56c0.2-1.68,1.51-3.22,2.56-5.3c-0.48-0.62-1.3-1.66-2.06-2.63c2.34-2.03,4.73-4.02,6.97-6.16
		c0.27-0.26-0.3-1.38-0.48-2.1c2.78-3.76,2.11-7.85,1.13-11.96c0.76-0.01,1.51-0.01,2.27-0.02c0.06,0.52,0.11,1.04,0.17,1.57
		c0.17-0.06,0.34-0.11,0.51-0.17c-0.24-0.46-0.48-0.91-0.71-1.37c-0.47-3.3,0.85-8.03,3.74-12.94c0.32,1.1,0.54,1.88,0.77,2.66
		c0.36,0.12,0.72,0.24,1.08,0.35c0.62-2.02,1.73-4.03,1.74-6.05c0.01-2.1,1.14-2.37,2.51-2.82c1.86,3.67,6.59,5.17,9.98,3.17
		c3.55-2.1,4.3-6.74,1.68-10.34c0.12-1.1,0.25-2.2,0.37-3.31c0.31,0.22,0.62,0.44,0.93,0.66c0.84-0.96,1.67-1.92,2.51-2.89
		c0.69-0.79,1.31-2.19,2.07-2.27c2.37-0.23,4.92,0.57,7.15-0.01c2.74-0.72,5.48-2.07,7.74-3.78c2.95-2.24,7.35-2.82,10.87-1.32
		c1.01,0.43,2.8-0.94,4.23-1.48c-0.09-0.3-0.18-0.6-0.28-0.89c1.29,0.61,2.58,1.23,3.87,1.84c1.04,0.49,2.08,0.98,3.27,1.54
		c0.83-0.92,2.06-2.28,3.48-3.85c0.57,0.75,1.05,1.38,1.55,2.03c3.41-2.64,4.5,1.25,6.63,2.61c0.94-0.47,1.92-0.95,3.2-1.58
		c0.42,1.5,0.81,2.86,1.31,4.61c0.75-1.88,1.37-3.43,2.14-5.35c0.85,0.17,1.88,0.37,2.9,0.58c0.41,2.46,0.07,5.5,1.42,7.23
		c1.84,2.37,4.93,1.32,7.45,0.01c0.2,1.07,0.41,2.14,0.63,3.3c2.62-1.58,4.48-0.06,8.69,6.88c0.52-0.71,1-1.38,1.3-1.8
		c1.97,3.1,3.95,6.23,5.98,9.42c1.3-1.1,2.32-1.97,3.26-2.77c3.56,4.99,1.92,12.77,9.02,16.13c-2.97,2.38-1.78,4.82-0.35,7.26
		c-1.76,3.49-1.96,7.01,0.31,10.3c1.16,1.68,2.76,3.04,4.16,4.55c-1.19,0.9-2.38,1.81-2.93,2.23c0.54,2.52,0.98,4.61,1.43,6.7
		c-2-4.61-5.72-6.76-9.94-5.75c-3.21,0.77-6.67,5.63-6.2,8.74c0.59,3.9,4.39,7.43,8.14,7.57c4.06,0.14,7.19-2.77,8.03-7.46
		c3.38,3.43,1.23,7.42,1.38,11.51c-0.6-0.57-0.91-0.86-0.78-0.74c-0.44,1.71-0.96,3.68-1.47,5.64c-0.06-0.75-0.11-1.5-0.17-2.25
		c-0.2,0.04-0.4,0.09-0.6,0.13C223.18,133.92,223.45,134.62,223.72,135.32z M117.89,117.99c0.06-2.95-1.98-4.98-5.09-5.05
		c-3.33-0.08-5.64,1.87-5.75,4.84c-0.09,2.38,3.23,6.29,5.34,6.29C114.68,124.07,117.83,120.59,117.89,117.99z M181.31,50.19
		c-0.05,0.8-0.16,1.18-0.05,1.46c0.07,0.19,0.46,0.26,1.12,0.58C181.94,51.39,181.73,50.99,181.31,50.19z"/>
	<path class="st3" d="M103.3,152.94c0.43,0.06,0.85,0.12,1.28,0.17c-0.43,0.79-0.86,1.58-1.59,2.93c5.62,1.33,11.08,2.56,16.51,3.95
		c1.1,0.28,2.04,1.15,2.93,1.67c0.03-0.34,0.11-1.32,0.2-2.29c4,2.95,1.35,6.38,0.71,9.67c-0.22,0.24-0.43,0.48-0.65,0.73
		c0,0,0.1-0.04,0.1-0.04c-0.61,0.6-1.64,1.12-1.76,1.8c-0.8,4.39-1.39,8.82-2.05,13.23c0.02,2.24,0.16,4.49,0.03,6.72
		c-0.23,3.95-3.19,5.56-6.38,5.32c-13.37-1.03-26.34-4.23-39.47-7.9c6.59-13.65,12.99-26.89,19.49-40.34
		c3.42,1.14,6.69,2.23,9.95,3.33C102.82,152.24,103.06,152.59,103.3,152.94z"/>
	<path class="st3" d="M218.32,154.68c5.54,11.19,11.07,22.38,17.14,34.65c-14.29,2.94-28.04,5.78-41.9,8.64
		c-0.67-4.22-5.92-5.22-4.89-9.64c1.8-0.31,2.75-0.93,2.23-3.16c-0.98-4.15-1.58-8.38-2.36-12.58c-0.38-2.05-1.44-2.98-3.55-2.03
		c-1.2-3.23-1.3-6.31,1.25-9.03c8.19-1.69,16.38-3.37,24.57-5.08C213.33,155.92,215.82,155.27,218.32,154.68z"/>
	<path class="st3" d="M55.25,138.55c1.69-1.43,3.38-2.87,4.9-4.15c8.44,3.85,16.77,7.59,25.03,11.44c2.21,1.03,1.87,4.06-0.53,5.99
		c-0.61,0.49-1.17,1.02-1.75,1.54c-0.61,0.4-1.51,0.65-1.79,1.21c-2.57,5.31-5.06,10.66-7.44,16.05c-0.19,0.43,0.67,1.33,1.05,2.01
		c-1.66,3.51-3.22,7.07-5.02,10.51c-1.42,2.72-3.87,3.67-6.75,2.65c-5.11-1.82-10.15-3.85-15.21-5.79
		c-0.17-1.47-0.34-2.95-0.65-5.63c2.47,1.33,3.89,2.11,5.47,2.96c-0.78-1.39-1.64-2.95-2.46-4.42c1.47-0.61,3.02-1.25,4.57-1.89
		c1.12-0.41,2.49-0.57,3.29-1.32c0.7-0.66,0.76-1.99,1.11-3.02c1.29-2.07,2.59-4.13,3.9-6.22c1,0.41,1.75,0.71,2.53,1.03
		c0.89-6.25-0.01-10.01-3.21-11.5c-2.71-1.27-5.71-2.68-8.4,0.3c-1.33,0.13-2.66,0.27-4.7,0.47c1.71-1.38,2.84-2.29,3.82-3.09
		c-0.44-0.92-0.89-1.87-1.24-2.63C53.3,142.82,57.44,142.4,55.25,138.55z"/>
	<path class="st3" d="M177.77,162.19c2.41,11.72,4.82,23.43,7.22,35.08c-4.41,3.25-52.39,3.21-61.74,0.67
		c2.41-11.88,4.83-23.8,7.26-35.72c2.91,0.21,5.82,0.42,8.73,0.63c0,0.2,0,0.4,0,0.6c-0.81,0.17-1.61,0.34-2.66,0.57
		c0.78,0.57,1.21,0.88,0.81,0.58c-1.01,2.16-1.89,3.77-2.52,5.47c-0.63,1.71-1.61,3.61-1.34,5.25c0.33,2.02-2.39,5.39,2.21,6.18
		c0.65,0.11,0.87,2.68,1.29,4.11c0.23,0.8,0.21,1.92,0.74,2.34c2.27,1.79,4.71,3.34,7.06,5.02c2.35,1.69,6.65,1.28,8.67-0.84
		c0.54-0.56,1.23-0.98,1.1-0.88c2.42,1.47,4.27,2.59,6.36,3.85c0.44-1.32,0.71-2.15,1.05-3.16c0.28,0.77,0.48,1.32,0.46,1.26
		c4.43-2.92,10.81-4.6,10.48-11.79c5.76-5.6-0.29-10.65-0.18-16.07c0.21-0.04,0.96-0.18,1.84-0.34c-0.8-0.6-1.41-1.05-1.94-1.45
		C174.48,163.06,176.13,162.63,177.77,162.19z"/>
	<path class="st4" d="M177.77,162.19c-1.64,0.43-3.28,0.87-5.14,1.36c0.54,0.4,1.14,0.85,1.94,1.45c-0.88,0.16-1.63,0.3-1.84,0.34
		c-0.1,5.42,5.95,10.47,0.18,16.07c0.33,7.19-6.05,8.87-10.48,11.79c0.02,0.06-0.18-0.5-0.46-1.26c-0.33,1.01-0.61,1.84-1.05,3.16
		c-2.09-1.27-3.94-2.39-6.36-3.85c0.13-0.1-0.57,0.32-1.1,0.88c-2.02,2.11-6.31,2.53-8.67,0.84c-2.35-1.69-4.79-3.24-7.06-5.02
		c-0.53-0.42-0.5-1.54-0.74-2.34c-0.42-1.43-0.64-4-1.29-4.11c-4.59-0.79-1.88-4.15-2.21-6.18c-0.27-1.64,0.71-3.54,1.34-5.25
		c0.63-1.7,1.51-3.31,2.52-5.47c0.41,0.29-0.02-0.02-0.81-0.58c1.05-0.22,1.85-0.39,2.66-0.57c0-0.2,0-0.4,0-0.6
		c-2.91-0.21-5.82-0.42-8.73-0.63c0.24-1.33,0.49-2.65,0.68-3.68c15.25,0,30.41,0,45.73,0
		C177.22,159.85,177.49,161.02,177.77,162.19z M164.73,178.55c-0.4-3.2-2.1-5.38-5.12-6.52c-4.26-4.19-11.74-3.04-14.59,2.25
		c-3.48,2.33-4,7.23-1.17,11.23c0.92-0.25,1.86-0.5,2.8-0.75c3.96,5.64,8.27,5.98,13.45,1.14c0.45,2.59,1.92,2.39,3.18,0.84
		C165.23,184.37,166.56,181.68,164.73,178.55z M143.77,163.51c0-0.07,0-0.14,0-0.22c-0.29,0-0.59-0.01-0.88,0.01
		c-0.02,0-0.04,0.14-0.06,0.21C143.14,163.51,143.45,163.51,143.77,163.51z"/>
	<path class="st3" d="M260.54,180.01c-3.79,1.5-7.58,3-11.37,4.5c-5.73,2.26-10.29,0.05-12.16-5.85c-0.28-0.88-0.86-1.66-1.3-2.48
		c1.19-3.6-1.57-10.06-5.33-12.51c-2.69-3.35-5.57-6.6-5.87-11.2l-0.05,0.06c0.4-0.6,1.29-1.47,1.14-1.74
		c-1.15-2.02,0.2-2.77,1.61-3.35c5.59-2.3,11.21-4.52,16.82-6.76c0.45-0.18,0.97-0.2,1.37-0.44c6.23-3.84,7.35-3.59,11.27,2.56
		c-1.13,0.37-3.65-0.67-2.28,2.24c0,0-0.01,0.01-0.01,0.01c-1.29,0.31-2.58,0.62-4.65,1.12c2.07,0.5,3.36,0.81,4.65,1.12
		c0,0,0.01,0.01,0.01,0.01c0.79,0.78,1.59,1.55,2.38,2.33c-1.05-0.28-2.08-0.61-3.14-0.82c-3.55-0.7-7.22,1.55-7.59,4.62
		c-0.7,1.37-1.67,2.69-2.01,4.15c-0.2,0.87,0.57,1.97,0.9,2.97c0.81-0.43,1.63-0.85,2.44-1.28c0.1,2.47-0.1,4.99,2.9,6.26
		c0.84,0.35,1.28,1.67,1.9,2.54c-0.18,0.79-0.71,2.09-0.46,2.27c0.7,0.49,1.73,0.66,2.64,0.69c0.82,0.02,1.64-0.31,2.47-0.49
		c1.42,1.02,2.83,2.04,3.89,2.8c-0.1,1.22-0.2,2.55-0.31,3.88c-0.83,0-1.66,0-2.49,0c0.09,0.38,0.18,0.77,0.27,1.15
		c0.73-0.39,1.47-0.78,2.2-1.17C260.42,178.13,260.48,179.07,260.54,180.01z M253.61,141.87c0.1-0.05,0.2-0.1,0.3-0.15
		c-0.19-0.02-0.37-0.04-0.56-0.06C253.44,141.73,253.53,141.8,253.61,141.87z"/>
	<path class="st1" d="M215.87,206.32c0.23,0.01,0.46,0.03,0.69,0.04c0.41-0.21,0.82-0.41,1.23-0.62c1.99-0.53,3.99-1.06,5.57-1.48
		c-3.52,13.78-13.63,21.82-26.61,23.22c-12.5,1.34-24.65-2.9-32.51-15.79c3.26,0,6.24,0,9.21,0c3.15,1.8,6.26,3.65,9.44,5.39
		c4.21,2.31,8.82,1.41,13.24,1.22c4.36-0.18,9.01-1.17,11.69-4.82c2.45-3.33,5.25-5.05,8.63-5.13
		C216.22,207.58,216.05,206.95,215.87,206.32z"/>
	<path class="st1" d="M55.25,138.55c2.19,3.84-1.95,4.26-3.49,6.49c0.36,0.75,0.81,1.71,1.24,2.63c-0.99,0.8-2.11,1.7-3.82,3.09
		c2.04-0.2,3.37-0.34,4.7-0.47c0,0-0.02-0.05-0.02-0.05c-0.01,0.37-0.02,0.74-0.03,1.11c0.9,3.03-2.53,3.04-3.39,4.84
		c-0.48-0.37-1.02-1.11-1.43-1.05c-3.47,0.51-3.39,3.17-3.32,5.78c-0.04,4.1,1.23,7.49,5.17,9.4c0.62,0.18,1.24,0.36,1.86,0.54
		c0.65,0.06,1.3,0.12,1.94,0.18c-1.55,0.64-3.1,1.28-4.57,1.89c0.82,1.47,1.68,3.03,2.46,4.42c-1.58-0.85-3-1.63-5.47-2.96
		c0.31,2.68,0.48,4.15,0.65,5.63c-7.89-3.82-15.78-7.64-24.48-11.86C34.41,157.83,44.83,148.19,55.25,138.55z"/>
	<path class="st1" d="M256.76,149.62c-0.79-0.78-1.59-1.55-2.38-2.33c0.34-0.08,0.68-0.15-0.02,0c0.54-0.47,0.28-0.24,0.01-0.01
		c-1.29-0.31-2.58-0.62-4.65-1.12c2.07-0.5,3.36-0.81,4.65-1.12c0.29,0.15,0.58,0.31-0.02-0.01c0.68,0.1,0.35,0.05,0.03,0
		c-1.37-2.91,1.15-1.87,2.28-2.24c0,0-0.04-0.04-0.04-0.04c0.89,2.74,2.39,4.74,5.65,4.54c7.24,6.61,14.47,13.23,22.13,20.23
		c-7.81,5.19-15.56,9.35-23.86,12.49c-0.06-0.95-0.12-1.89-0.18-2.83l0.02,0.02c0.11-1.33,0.21-2.67,0.31-3.88
		c-1.06-0.76-2.48-1.78-3.89-2.8c3.06-1.12,6.33-2.02,6.89-6.01c1.72-4.95,0.51-7.65-3.37-7.47l0.03,0.02
		c-0.3-0.29-0.61-0.57-0.91-0.86c-1.53-1.43-4.14-2.5-1.68-5.25C257.83,150.87,257.11,150.08,256.76,149.62z"/>
	<path class="st1" d="M77.96,202.75c2.75,0.55,5.49,1.11,8.24,1.66c0.04,0.28,0.08,0.56,0.12,0.84c-4.7,2.24-9.2,5.46-14.15,6.45
		c-5.36,1.07-11.15-0.13-16.74,0.01c-4.16,0.11-6.17-3.82-9.77-4.58l-0.05-0.05c-7.45-5.46-11.99-12.91-14.71-22.84
		c3.05,1.88,5.54,3.4,8.02,4.92c-2.1,2.05,0.61,3,1.25,4.01c5.3,8.46,12.74,13.82,23.03,14.13
		C68.56,207.48,73.61,206.08,77.96,202.75z"/>
	<path class="st1" d="M109.96,216.8c-3.8-2.96-7.6-5.91-11.25-8.75c16.09,1.58,32.38,3.19,48.67,4.79c-0.68,0.14-1.44,0.3-2.69,0.57
		c0.9,0.27,1.38,0.41,1.89,0.56c-0.04,0.17-0.03,0.44-0.14,0.5c-1.54,0.88-3,2.08-4.66,2.55c-5.55,1.57-11.12,3.46-16.81,4.05
		c-3.44,0.36-7.13-1.39-10.66-2.36c-1.49-0.41-2.87-1.23-4.3-1.87L109.96,216.8z"/>
	<path class="st1" d="M273.13,186.58c4.23-2.42,8.46-4.84,13.56-7.75c-1.71,3.85-2.56,7-4.36,9.47c-1.69,2.31-2.68,5.16-5.52,6.85
		c-1.32,0.78-1.41,3.62-1.8,4.76c-1.59,0.22-3.15,0.03-4.25,0.65c-7.33,4.14-15.47,4.27-23.48,4.81c-1.71,0.11-3.58-1.18-5.27-2.05
		c-1.44-0.74-2.72-1.8-4.44-2.97c2.25-0.5,4.28-0.96,6.3-1.41c2.62,0.34,5.23,0.79,7.85,1.01c5.71,0.47,10.99-1.59,15.77-4.14
		c1.59-0.85,6.31-2.45,3.9-6.28C272.06,188.42,272.59,187.5,273.13,186.58z"/>
	<path class="st3" d="M77.96,202.75c-4.35,3.33-9.4,4.73-14.74,4.57c-10.29-0.31-17.73-5.67-23.03-14.13
		c-0.64-1.02-3.35-1.96-1.25-4.01c1.94,0.65,3.9,1.27,5.82,1.97c8.48,3.08,16.95,6.21,25.44,9.25
		C72.74,201.3,75.37,201.97,77.96,202.75z"/>
	<path class="st2" d="M154.91,119.09c-5.15-0.09-9.23-4.16-9.2-9.2c0.03-4.93,4.84-10.02,9.31-9.85c4.31,0.17,9.65,5.58,9.59,9.72
		C164.55,114.24,159.43,119.16,154.91,119.09z"/>
	<path class="st3" d="M215.87,206.32c0.18,0.63,0.35,1.25,0.57,2.02c-3.38,0.08-6.18,1.8-8.63,5.13c-2.68,3.66-7.32,4.64-11.69,4.82
		c-4.42,0.19-9.03,1.08-13.24-1.22c-3.18-1.74-6.29-3.59-9.44-5.39c3.74-0.25,7.51-0.33,11.23-0.79c5.74-0.71,11.45-1.68,17.17-2.53
		C206.51,207.68,211.19,207.01,215.87,206.32z"/>
	<path class="st3" d="M273.13,186.58c-0.54,0.92-1.08,1.83-1.73,2.95c2.41,3.83-2.31,5.43-3.9,6.28
		c-4.78,2.55-10.05,4.61-15.77,4.14c-2.63-0.22-5.24-0.66-7.85-1.01c4.77-1.58,9.67-2.85,14.28-4.81
		C263.29,191.94,268.15,189.13,273.13,186.58z"/>
	<path class="st2" d="M182.03,110.31c0.07,3.32-3.81,7.78-6.87,7.9c-2.3,0.08-6.14-4.61-6.1-7.46c0.05-3.27,3.28-6.39,6.57-6.34
		C179.16,104.45,181.96,107.04,182.03,110.31z"/>
	<path class="st4" d="M218.32,154.68c-2.5,0.59-5,1.24-7.51,1.77c-8.18,1.72-16.38,3.39-24.57,5.08c-0.25-1.07-0.51-2.15-0.8-3.37
		c10.47-2.1,20.82-4.17,31.6-6.33C217.25,152.29,217.79,153.49,218.32,154.68z"/>
	<path class="st4" d="M122.62,159.38c-0.08,0.97-0.17,1.94-0.2,2.29c-0.89-0.52-1.84-1.39-2.93-1.67
		c-5.43-1.39-10.89-2.62-16.51-3.95c0.73-1.35,1.16-2.14,1.59-2.93c2.37,0.32,4.8,0.44,7.1,1.01c3.79,0.94,7.51,2.19,10.6,3.11
		C122.43,158.15,122.53,158.77,122.62,159.38z"/>
	<path class="st4" d="M23.88,158.33c4.97-4.96,9.94-9.91,14.89-14.89c1.8-1.82,3.45-3.81,5.34-5.52c0.81-0.73,1.79-3.09,3.27-0.5
		c-5.23,5.07-10.37,10.24-15.74,15.17C29.29,154.75,26.49,156.43,23.88,158.33z"/>
	<path class="st4" d="M265.41,141.95c0.54-0.18,1.33-0.7,1.6-0.5c6.3,4.59,12.66,9.12,16.64,16.11c-1.04-0.41-2.33-0.56-3.09-1.26
		C275.45,151.58,270.45,146.74,265.41,141.95z"/>
	<path class="st4" d="M184.99,170.56c2.11-0.95,3.17-0.02,3.55,2.03c0.78,4.2,1.39,8.43,2.36,12.58c0.52,2.22-0.43,2.85-2.23,3.16
		C187.44,182.41,186.22,176.48,184.99,170.56z"/>
	<path class="st4" d="M74.71,172.64c-0.37-0.68-1.24-1.57-1.05-2.01c2.38-5.4,4.87-10.74,7.44-16.05c0.27-0.56,1.17-0.81,1.79-1.21
		c-0.41,1.73-0.54,3.59-1.27,5.18C79.45,163.31,77.04,167.95,74.71,172.64z"/>
	<path class="st4" d="M230.38,163.68c3.76,2.45,6.51,8.91,5.33,12.51C233.22,172.32,230.12,168.71,230.38,163.68z"/>
	<path class="st4" d="M118.97,184.77c0.66-4.41,1.26-8.84,2.05-13.23c0.12-0.69,1.15-1.21,1.76-1.8c-0.65,4.3-1.21,8.61-2,12.88
		C120.63,183.42,119.6,184.06,118.97,184.77z"/>
	<path class="st3" d="M262.27,147.3c-3.26,0.2-4.76-1.8-5.65-4.54C258.51,144.27,260.39,145.78,262.27,147.3z"/>
	<path class="st3" d="M224.51,152.48c-0.09-0.03-0.18-0.05-0.27-0.08c0.07,0.04,0.14,0.09,0.21,0.13
		C224.46,152.53,224.51,152.48,224.51,152.48z"/>
	<path class="st4" d="M122.69,169.78c0.22-0.24,0.43-0.48,0.65-0.73C123.12,169.29,122.9,169.53,122.69,169.78z"/>
	<path class="st3" d="M217.78,205.74c-0.41,0.21-0.82,0.41-1.23,0.62C216.97,206.16,217.38,205.95,217.78,205.74z"/>
	<path class="st4" d="M103.3,152.94c-0.24-0.35-0.48-0.7-0.72-1.05C102.82,152.24,103.06,152.59,103.3,152.94z"/>
	<path class="st1" d="M45.67,207.13c-0.12,0.11-0.24,0.21-0.36,0.32c0.1-0.12,0.2-0.24,0.31-0.36
		C45.62,207.09,45.67,207.13,45.67,207.13z"/>
	<path class="st1" d="M110.01,216.85c-0.12,0.11-0.24,0.21-0.36,0.32c0.1-0.12,0.21-0.24,0.31-0.36
		C109.96,216.8,110.01,216.85,110.01,216.85z"/>
	<path class="st4" d="M230.73,49.48c-2.46-2.08-4.91-4.16-7.49-6.35c-5.63,5.14-11.74,3.17-17.74,1.17
		c-8.22-2.75-15.66-6.81-21.25-13.68c-0.55-0.67-1.25-1.34-1.48-2.13c-1.27-4.25-3.94-5.56-8.41-5.6
		c-6.08-0.05-12.17-1.93-18.22-1.78c-26.55,0.68-49.85,9.85-69.55,27.81c0.4-2.48-1.77-2.47-3.14-3.23
		c16.01-18.03,36.06-28.49,59.82-32.26c11.3-1.79,22.7-1.78,33.72,0.34c15.58,3,30.22,9.06,42.68,19.3
		c5.04,4.14,9.57,8.9,14.33,13.38c-0.96-0.35-1.91-0.71-3.25-1.2C230.73,46.63,230.73,48.05,230.73,49.48z"/>
	<path class="st0" d="M96.51,85.23c0.98,4.11,1.65,8.2-1.13,11.96c-5.51,4.2-11.17,4.4-15.51,0.53c-3.01-2.68-4.03-7.42-2.49-11.56
		c1.43-3.84,4.95-6.19,9.28-6.18C91.51,79.99,95.66,81.56,96.51,85.23z"/>
	<path class="st0" d="M226.03,106.91c-1.4-1.51-3.01-2.87-4.16-4.55c-2.27-3.29-2.07-6.81-0.31-10.3
		c6.01-5.75,10.63-6.58,15.54-2.66c3.84,3.05,3.94,7.39,2.83,11.45c-0.77,2.8-2.89,5.33-6.39,5.61
		C231.04,106.66,228.53,106.76,226.03,106.91z"/>
	<path class="st0" d="M224.55,118.93c-0.84,4.69-3.97,7.6-8.03,7.46c-3.74-0.13-7.55-3.67-8.14-7.57c-0.47-3.1,2.98-7.97,6.2-8.74
		c4.22-1.01,7.94,1.14,9.94,5.75C224.54,116.86,224.54,117.9,224.55,118.93z"/>
	<path class="st0" d="M120.24,59.27c2.63,3.6,1.87,8.24-1.68,10.34c-3.39,2-8.12,0.5-9.98-3.17c0.06-2.72-0.96-5.63,1.76-7.81
		C113.33,56.25,115.89,56.36,120.24,59.27z"/>
	<path class="st3" d="M230.73,49.48c0-1.43,0-2.86,0-4.23c1.34,0.49,2.3,0.85,3.25,1.2c0.31,0.37,0.63,0.73,0.94,1.1
		c0.39,0.93,0.77,1.86,1.16,2.78c0.2-0.29,0.4-0.57,0.59-0.86c1.32,1.38,3,2.55,3.89,4.16c4.67,8.38,9.21,16.83,13.61,25.35
		c0.75,1.44,0.61,3.35,0.96,5.55c-2.72-5.02-4.74-9.89-7.75-14.04c-5.04-6.93-10.71-13.4-16.11-20.07
		C231.06,50.14,230.91,49.8,230.73,49.48z"/>
	<path class="st3" d="M83.43,45.69c1.37,0.76,3.54,0.75,3.14,3.23c-5.91,7.27-11.81,14.53-17.72,21.8
		c-0.53-0.51-1.05-1.03-1.58-1.54C71.31,60.43,76.58,52.52,83.43,45.69z"/>
	<path class="st0" d="M193.03,53.63c-2.52,1.31-5.6,2.36-7.45-0.01c-1.35-1.73-1.01-4.77-1.42-7.23c0,0-0.1,0.02-0.1,0.02
		c0.46-0.52,0.92-1.03,1.38-1.55c2.11-0.07,4.55-0.85,6.25-0.05C195.29,46.51,195.29,48,193.03,53.63z"/>
	<path class="st2" d="M67.27,69.19c0.53,0.51,1.05,1.03,1.58,1.54c-1.89,3.56-3.79,7.13-5.68,10.69c-0.31-0.13-0.61-0.27-0.92-0.4
		C63.72,77,63.92,72.52,67.27,69.19z"/>
	<path class="st4" d="M236.68,49.46c-0.2,0.29-0.4,0.57-0.59,0.86c-0.39-0.93-0.77-1.86-1.16-2.78
		C235.51,48.18,236.09,48.82,236.68,49.46z"/>
	<path class="st2" d="M97.27,139.07c-0.75,0.27-1.49,0.55-2.24,0.82c-0.06-0.24-0.12-0.48-0.19-0.71c0.8-0.04,1.61-0.08,2.41-0.12
		C97.25,139.05,97.27,139.07,97.27,139.07z"/>
	<path class="st2" d="M185.45,44.86c-0.46,0.52-0.92,1.03-1.38,1.55C184.53,45.89,184.99,45.38,185.45,44.86z"/>
	<path class="st0" d="M117.89,117.99c-0.05,2.6-3.21,6.08-5.5,6.08c-2.11,0-5.43-3.9-5.34-6.29c0.11-2.98,2.42-4.92,5.75-4.84
		C115.91,113.01,117.95,115.04,117.89,117.99z"/>
	<path class="st1" d="M223.72,135.32c-0.27-0.7-0.54-1.39-0.81-2.09c0.2-0.04,0.4-0.09,0.6-0.13c0.06,0.75,0.11,1.5,0.17,2.25
		C223.68,135.34,223.72,135.32,223.72,135.32z"/>
	<path class="st1" d="M181.31,50.19c0.42,0.8,0.63,1.2,1.07,2.04c-0.66-0.32-1.05-0.39-1.12-0.58
		C181.15,51.36,181.26,50.99,181.31,50.19z"/>
	<path class="st1" d="M98.74,85.24c0.24,0.46,0.48,0.91,0.71,1.37c-0.17,0.06-0.34,0.11-0.51,0.17c-0.06-0.52-0.11-1.04-0.17-1.57
		C98.78,85.21,98.74,85.24,98.74,85.24z"/>
	<path class="st0" d="M50.44,156.19c0.86-1.8,4.28-1.81,3.39-4.84c0.01-0.37,0.02-0.74,0.03-1.11c0,0,0.02,0.05,0.02,0.05
		c2.69-2.98,5.68-1.57,8.4-0.3c3.2,1.49,4.1,5.25,3.21,11.5c-0.79-0.32-1.54-0.63-2.53-1.03c-1.31,2.09-2.6,4.16-3.9,6.22
		c-8.16,0.43-9.22-0.18-9.97-5.79C49.54,159.32,49.99,157.75,50.44,156.19z M63.35,158.75l-0.15,0.22l0.19,0.04L63.35,158.75z"/>
	<path class="st4" d="M49.09,160.89c0.75,5.61,1.8,6.22,9.97,5.79c-0.34,1.03-0.41,2.37-1.11,3.02c-0.8,0.75-2.17,0.91-3.29,1.32
		c-0.65-0.06-1.3-0.12-1.95-0.18c-0.62-0.18-1.24-0.36-1.86-0.54c-3.95-1.91-5.21-5.3-5.17-9.4
		C46.82,160.9,47.95,160.89,49.09,160.89z"/>
	<path class="st0" d="M160.1,185.9c-5.18,4.83-9.49,4.5-13.45-1.14c0.23-3.52,0.45-7.04,0.69-10.65c-0.43,0.03-1.37,0.1-2.31,0.17
		c2.84-5.29,10.33-6.45,14.58-2.25c-1.82,0.14-3.65,0.29-5.43,0.43c2.25,1.78,4.39,3.48,6.54,5.18
		C160.51,180.39,160.3,183.14,160.1,185.9z"/>
	<path class="st1" d="M145.02,174.28c0.94-0.07,1.89-0.14,2.31-0.17c-0.23,3.61-0.46,7.13-0.69,10.65c-0.94,0.25-1.87,0.5-2.8,0.75
		C141.02,181.51,141.54,176.61,145.02,174.28z"/>
	<path class="st3" d="M160.1,185.9c0.2-2.75,0.41-5.51,0.62-8.26c1.34,0.31,2.68,0.61,4.01,0.91c1.83,3.13,0.5,5.82-1.45,8.19
		C162.01,188.29,160.55,188.49,160.1,185.9z"/>
	<path class="st1" d="M164.73,178.55c-1.34-0.3-2.67-0.61-4.01-0.91c-2.15-1.7-4.29-3.4-6.54-5.18c1.79-0.14,3.61-0.29,5.43-0.43
		C162.63,173.17,164.33,175.35,164.73,178.55z"/>
	<path class="st3" d="M143.77,163.51c-0.31,0-0.63,0-0.94,0c0.02-0.07,0.04-0.21,0.06-0.21c0.29-0.01,0.59-0.01,0.88-0.01
		C143.77,163.37,143.77,163.44,143.77,163.51z"/>
	<path class="st0" d="M256.76,149.62c0.35,0.46,1.07,1.25,0.99,1.33c-2.47,2.75,0.15,3.82,1.68,5.25c0.3,0.29,0.61,0.57,0.91,0.86
		c0,0-0.03-0.02-0.03-0.02c-0.21,2.75-0.42,5.49-0.63,8.24c-2.51,0.93-5.02,1.85-7.53,2.78c-0.62-0.87-1.06-2.19-1.9-2.54
		c-3-1.26-2.79-3.79-2.9-6.26c-0.67-1.89,3.17-4.82-1.33-5.84c0.37-3.07,4.04-5.32,7.59-4.62
		C254.68,149,255.71,149.34,256.76,149.62z M248.94,152.56c-0.04-0.11-0.09-0.22-0.13-0.33c-0.06,0.09-0.17,0.19-0.18,0.29
		c-0.01,0.1,0.08,0.22,0.12,0.32C248.81,152.75,248.88,152.65,248.94,152.56z"/>
	<path class="st4" d="M252.15,168.06c2.51-0.93,5.02-1.85,7.53-2.78c1.33-0.25,2.67-0.51,4-0.76c-0.56,3.99-3.82,4.89-6.89,6.01
		c-0.82,0.18-1.65,0.51-2.46,0.49c-0.91-0.03-1.94-0.2-2.64-0.69C251.44,170.15,251.98,168.85,252.15,168.06z"/>
	<path class="st1" d="M246.03,153.42c4.5,1.02,0.67,3.95,1.33,5.84c-0.81,0.42-1.63,0.85-2.44,1.28c-0.33-1-1.11-2.1-0.9-2.97
		C244.35,156.11,245.32,154.79,246.03,153.42z"/>
	<path class="st1" d="M260.36,177.18c-0.73,0.39-1.47,0.78-2.2,1.17c-0.09-0.38-0.18-0.77-0.27-1.15c0.83,0,1.66,0,2.49,0
		C260.38,177.21,260.36,177.18,260.36,177.18z"/>
	<path class="st1" d="M253.61,141.87c-0.09-0.07-0.18-0.13-0.26-0.2c0.19,0.02,0.37,0.04,0.56,0.06
		C253.81,141.77,253.71,141.82,253.61,141.87z"/>
	<path class="st3" d="M49.09,160.89c-1.14,0.01-2.27,0.02-3.41,0.03c-0.07-2.61-0.14-5.26,3.32-5.77c0.42-0.06,0.95,0.68,1.43,1.05
		C49.99,157.75,49.54,159.32,49.09,160.89z"/>
	<path class="st3" d="M50.85,170.31c0.62,0.18,1.24,0.36,1.86,0.54C52.1,170.67,51.47,170.49,50.85,170.31z"/>
	<path class="st3" d="M53.86,150.24c-0.01,0.37-0.02,0.74-0.03,1.11C53.84,150.98,53.85,150.61,53.86,150.24z"/>
	<path class="st3" d="M263.68,164.51c-1.33,0.25-2.67,0.51-4,0.76c0.21-2.75,0.42-5.49,0.63-8.24
		C264.19,156.87,265.4,159.57,263.68,164.51z"/>
	<path class="st3" d="M254.38,145.04c0.32,0.05,0.65,0.1-0.03,0C254.95,145.36,254.66,145.2,254.38,145.04
		C254.37,145.05,254.38,145.04,254.38,145.04z"/>
	<path class="st3" d="M254.37,147.28c0.26-0.23,0.52-0.45-0.01,0.01C255.06,147.14,254.72,147.21,254.37,147.28
		C254.38,147.29,254.37,147.28,254.37,147.28z"/>
	<path class="st3" d="M260.34,157.06c-0.3-0.29-0.61-0.57-0.91-0.86C259.73,156.48,260.04,156.77,260.34,157.06z"/>
	<polygon class="st3" points="63.35,158.75 63.39,159.01 63.2,158.97 	"/>
	<path class="st1" d="M248.94,152.56c-0.06,0.09-0.13,0.19-0.19,0.28c-0.04-0.11-0.13-0.22-0.12-0.32c0.01-0.1,0.12-0.19,0.18-0.29
		C248.85,152.34,248.9,152.45,248.94,152.56z"/>
</g>
</svg>
